<svg width="15" height="15" viewBox="0 0 15 15" fill="none" xmlns="http://www.w3.org/2000/svg">
<path d="M1 9.14322C1 7.91362 1.99679 6.91683 3.2264 6.91683V6.91683C3.82177 6.91683 4.35953 6.56107 4.59241 6.01312L6.4735 1.58702C6.60326 1.28172 6.90288 1.0835 7.23461 1.0835V1.0835C8.22438 1.0835 8.99256 1.94696 8.87736 2.93L8.69602 4.47743C8.61662 5.15501 9.1461 5.75016 9.82831 5.75016H10.4395C12.4326 5.75016 13.8716 7.65788 13.324 9.57433L12.705 11.741C12.337 13.0289 11.1599 13.9168 9.82043 13.9168H4C2.34314 13.9168 1 12.5737 1 10.9168V9.14322Z" stroke="#F4B740" stroke-width="2"/>
<path d="M3.91675 6.3335V13.9168" stroke="#F4B740" stroke-width="2"/>
</svg>
